<svg width="433" height="574" viewBox="0 0 433 574" fill="none" xmlns="http://www.w3.org/2000/svg">
<path d="M432.234 269.984C432.234 305.141 430.411 336.521 426.766 364.125C423.12 391.729 417.781 416.339 410.75 437.953C403.979 459.307 395.516 477.927 385.359 493.812C375.464 509.438 364.005 522.849 350.984 534.047C335.359 547.849 321.948 554.75 310.75 554.75C305.281 554.75 302.547 551.495 302.547 544.984C302.547 542.901 304.5 539.385 308.406 534.438C312.312 529.229 316.089 523.109 319.734 516.078C340.568 476.755 350.984 417.12 350.984 337.172C350.984 322.849 350.984 306.182 350.984 287.172C350.984 268.161 349.682 248.63 347.078 228.578C344.734 208.266 340.568 188.344 334.578 168.812C328.589 149.281 319.474 131.833 307.234 116.469C294.995 101.104 278.979 88.7344 259.188 79.3594C239.656 69.724 215.177 64.9062 185.75 64.9062C162.833 64.9062 140.438 69.2031 118.562 77.7969C96.688 86.3906 74.9427 99.151 53.3281 116.078L40.8281 125.844C38.4844 127.927 35.8802 129.75 33.0156 131.312C30.151 132.875 28.0677 133.656 26.7656 133.656C21.2969 133.656 18.5625 131.052 18.5625 125.844C18.5625 117.771 24.1615 106.573 35.3594 92.25C58.7969 62.3021 86.401 39.6458 118.172 24.2812C149.943 8.65625 183.406 0.84375 218.562 0.84375C253.979 0.84375 284.969 6.18229 311.531 16.8594C338.354 27.5365 360.62 43.9427 378.328 66.0781C396.297 87.9531 409.708 115.818 418.562 149.672C427.677 183.526 432.234 223.63 432.234 269.984ZM97.859 147.328C97.859 149.672 96.557 157.875 93.953 171.938C91.349 185.74 88.745 204.099 86.1406 227.016C83.5365 249.932 82.2344 273.5 82.2344 297.719C82.2344 316.469 82.7552 333.526 83.7969 348.891C85.099 364.255 87.1823 380.401 90.047 397.328C92.911 414.255 97.339 429.099 103.328 441.859C109.318 454.359 116.74 465.948 125.594 476.625C134.448 487.042 145.776 495.115 159.578 500.844C173.38 506.312 189.135 509.047 206.844 509.047C222.469 509.047 236.271 507.484 248.25 504.359C260.229 500.974 269.474 497.719 275.984 494.594C282.495 491.469 286.922 489.906 289.266 489.906C294.995 489.906 297.859 493.031 297.859 499.281C297.859 505.792 295.385 513.083 290.438 521.156C285.49 529.229 278.589 537.302 269.734 545.375C260.88 553.188 248.901 559.698 233.797 564.906C218.693 570.375 202.417 573.109 184.969 573.109C149.812 573.109 120.125 567.38 95.906 555.922C71.6875 544.203 52.6771 526.625 38.875 503.188C25.3333 479.75 15.5677 452.667 9.57808 421.938C3.84898 391.208 0.984375 354.62 0.984375 312.172C0.984375 247.849 7.49477 203.318 20.5156 178.578C27.8073 165.036 38.224 154.099 51.7656 145.766C65.3073 137.172 76.6354 132.875 85.75 132.875C93.823 132.875 97.859 137.693 97.859 147.328Z" fill="white"/>
</svg>
